<svg id="Слой_1" data-name="Слой 1" xmlns="http://www.w3.org/2000/svg" viewBox="0 0 63.54 11.03"><defs><style>.cls-1{fill:#20a052;}</style></defs><title>Безымянный-1</title><path class="cls-1" d="M118.79,102.51l-1.8-3.6h-1.62v3.6h-1.3V94h3.31a2.44,2.44,0,0,1,2.65,2.5,2.24,2.24,0,0,1-1.7,2.27l2,3.78Zm-1.5-7.38h-1.92V97.8h1.92a1.34,1.34,0,1,0,0-2.67Z" transform="translate(-114.08 -93.93)"/><path class="cls-1" d="M122.7,99.82a1.5,1.5,0,0,0,1.55,1.7,1.82,1.82,0,0,0,1.48-.62l.78.73a2.85,2.85,0,0,1-2.28.95c-1.52,0-2.73-.8-2.73-3.12,0-2,1-3.11,2.58-3.11s2.58,1.2,2.58,2.93v.54Zm2.57-1.68a1.25,1.25,0,0,0-1.2-.77,1.27,1.27,0,0,0-1.21.77,1.92,1.92,0,0,0-.16.83h2.73A1.92,1.92,0,0,0,125.26,98.14Z" transform="translate(-114.08 -93.93)"/><path class="cls-1" d="M135.68,102.51V98.8a1.18,1.18,0,0,0-1.22-1.35,1.2,1.2,0,0,0-1.26,1.29v3.77H132V98.8a1.18,1.18,0,0,0-1.22-1.35,1.21,1.21,0,0,0-1.26,1.35v3.71h-1.22V96.42h1.2V97a2.2,2.2,0,0,1,1.62-.68,1.94,1.94,0,0,1,1.73.89,2.31,2.31,0,0,1,1.91-.89,2.2,2.2,0,0,1,1.54.55,2.26,2.26,0,0,1,.65,1.72v3.89Z" transform="translate(-114.08 -93.93)"/><path class="cls-1" d="M142.85,101.86a2.46,2.46,0,0,1-1.82.72,2.43,2.43,0,0,1-1.81-.72,4.34,4.34,0,0,1,0-4.79,2.43,2.43,0,0,1,1.81-.72,2.46,2.46,0,0,1,1.82.72,4.34,4.34,0,0,1,0,4.79Zm-.92-4.07a1.24,1.24,0,0,0-.9-.35,1.21,1.21,0,0,0-.89.35,3.52,3.52,0,0,0,0,3.33,1.22,1.22,0,0,0,.89.36,1.25,1.25,0,0,0,.9-.36,3.52,3.52,0,0,0,0-3.33Z" transform="translate(-114.08 -93.93)"/><path class="cls-1" d="M148.94,102.51V98.8a1.18,1.18,0,0,0-1.22-1.35,1.21,1.21,0,0,0-1.26,1.35v3.71h-1.22V96.42h1.2V97a2.17,2.17,0,0,1,1.62-.68,2.11,2.11,0,0,1,1.5.55,2.23,2.23,0,0,1,.61,1.72v3.89Z" transform="translate(-114.08 -93.93)"/><path class="cls-1" d="M153.86,102.51a1.58,1.58,0,0,1-1.67-1.69V97.47h-.7v-.94h.7V94.69h1.22v1.85h1.18v.94h-1.18v3.29a.62.62,0,0,0,.67.71h.5v1Z" transform="translate(-114.08 -93.93)"/><path class="cls-1" d="M156.12,95.23v-1.3h1.3v1.3Zm0,7.28V96.42h1.22v6.08Z" transform="translate(-114.08 -93.93)"/><path class="cls-1" d="M162.79,105v-3.08a1.89,1.89,0,0,1-1.6.7,2.07,2.07,0,0,1-1.48-.54,5.18,5.18,0,0,1,0-5.15,2.1,2.1,0,0,1,1.49-.54,1.87,1.87,0,0,1,1.61.72v-.65H164V105Zm-1.26-7.52c-1.1,0-1.27.94-1.27,2s.17,2,1.27,2,1.26-.95,1.26-2S162.63,97.44,161.53,97.44Z" transform="translate(-114.08 -93.93)"/><path class="cls-1" d="M169.63,102.51v-.61a2.17,2.17,0,0,1-1.62.68,2.11,2.11,0,0,1-1.5-.55,2.23,2.23,0,0,1-.61-1.71V96.42h1.22v3.71a1.18,1.18,0,0,0,1.22,1.35,1.21,1.21,0,0,0,1.26-1.35V96.42h1.22v6.08Z" transform="translate(-114.08 -93.93)"/><path class="cls-1" d="M173.67,99.82a1.5,1.5,0,0,0,1.55,1.7,1.82,1.82,0,0,0,1.48-.62l.78.73a2.85,2.85,0,0,1-2.28.95c-1.52,0-2.73-.8-2.73-3.12,0-2,1-3.11,2.58-3.11s2.58,1.2,2.58,2.93v.54Zm2.57-1.68a1.25,1.25,0,0,0-1.2-.77,1.27,1.27,0,0,0-1.21.77,1.92,1.92,0,0,0-.16.83h2.73A1.92,1.92,0,0,0,176.24,98.14Z" transform="translate(-114.08 -93.93)"/></svg>