<svg xmlns="http://www.w3.org/2000/svg" viewBox="0 0 63.54 11.03"><defs><style>.cls-1{fill:#fff;}</style></defs><title>Ресурс 2</title><g id="Слой_2" data-name="Слой 2"><g id="Слой_1-2" data-name="Слой 1"><path class="cls-1" d="M4.71,8.58,2.91,5H1.3v3.6H0V0H3.31A2.44,2.44,0,0,1,6,2.53,2.24,2.24,0,0,1,4.26,4.8l2,3.78ZM3.21,1.2H1.3V3.87H3.21A1.3,1.3,0,0,0,4.67,2.54,1.31,1.31,0,0,0,3.21,1.2Z"/><path class="cls-1" d="M8.62,5.89a1.5,1.5,0,0,0,1.55,1.7A1.82,1.82,0,0,0,11.64,7l.78.73a2.85,2.85,0,0,1-2.28.95c-1.52,0-2.73-.8-2.73-3.12,0-2,1-3.11,2.58-3.11s2.58,1.2,2.58,2.93v.54Zm2.57-1.68A1.25,1.25,0,0,0,10,3.44a1.27,1.27,0,0,0-1.21.77A1.92,1.92,0,0,0,8.62,5h2.73A1.92,1.92,0,0,0,11.18,4.21Z"/><path class="cls-1" d="M21.6,8.58V4.87a1.18,1.18,0,0,0-1.22-1.35,1.2,1.2,0,0,0-1.26,1.29V8.58H17.89V4.87a1.18,1.18,0,0,0-1.22-1.35,1.21,1.21,0,0,0-1.26,1.35V8.58H14.18V2.49h1.2v.61A2.2,2.2,0,0,1,17,2.42a1.94,1.94,0,0,1,1.73.89,2.31,2.31,0,0,1,1.91-.89A2.2,2.2,0,0,1,22.17,3a2.26,2.26,0,0,1,.65,1.72V8.58Z"/><path class="cls-1" d="M28.77,7.93A2.46,2.46,0,0,1,27,8.65a2.43,2.43,0,0,1-1.81-.72,3.21,3.21,0,0,1-.72-2.4,3.19,3.19,0,0,1,.72-2.39A2.43,2.43,0,0,1,27,2.42a2.46,2.46,0,0,1,1.82.72,3.19,3.19,0,0,1,.72,2.39A3.21,3.21,0,0,1,28.77,7.93Zm-.92-4.07a1.24,1.24,0,0,0-.9-.35,1.21,1.21,0,0,0-.89.35,2.35,2.35,0,0,0-.42,1.67,2.35,2.35,0,0,0,.42,1.67,1.22,1.22,0,0,0,.89.36,1.25,1.25,0,0,0,.9-.36,2.35,2.35,0,0,0,.42-1.67A2.35,2.35,0,0,0,27.85,3.86Z"/><path class="cls-1" d="M34.86,8.58V4.87a1.18,1.18,0,0,0-1.22-1.35,1.21,1.21,0,0,0-1.26,1.35V8.58H31.15V2.49h1.2v.61A2.17,2.17,0,0,1,34,2.42a2.11,2.11,0,0,1,1.5.55,2.23,2.23,0,0,1,.61,1.72V8.58Z"/><path class="cls-1" d="M39.78,8.58a1.58,1.58,0,0,1-1.67-1.69V3.54h-.7V2.6h.7V.76h1.22V2.6h1.18v.94H39.33V6.82a.62.62,0,0,0,.67.71h.5v1Z"/><path class="cls-1" d="M42,1.3V0h1.3V1.3Zm0,7.28V2.49h1.22V8.58Z"/><path class="cls-1" d="M48.71,11V8a1.89,1.89,0,0,1-1.6.7,2.07,2.07,0,0,1-1.48-.54A3.65,3.65,0,0,1,45,5.53,3.62,3.62,0,0,1,45.64,3a2.1,2.1,0,0,1,1.49-.54,1.87,1.87,0,0,1,1.61.72V2.49h1.2V11ZM47.45,3.51c-1.1,0-1.27.94-1.27,2s.17,2,1.27,2,1.26-.95,1.26-2S48.55,3.51,47.45,3.51Z"/><path class="cls-1" d="M55.55,8.58V8a2.17,2.17,0,0,1-1.62.68,2.11,2.11,0,0,1-1.5-.55,2.23,2.23,0,0,1-.61-1.71V2.49H53V6.2a1.18,1.18,0,0,0,1.22,1.35A1.21,1.21,0,0,0,55.52,6.2V2.49h1.22V8.58Z"/><path class="cls-1" d="M59.59,5.89a1.5,1.5,0,0,0,1.55,1.7A1.82,1.82,0,0,0,62.61,7l.78.73a2.85,2.85,0,0,1-2.28.95c-1.52,0-2.73-.8-2.73-3.12,0-2,1-3.11,2.58-3.11s2.58,1.2,2.58,2.93v.54Zm2.57-1.68A1.25,1.25,0,0,0,61,3.44a1.27,1.27,0,0,0-1.21.77,1.92,1.92,0,0,0-.16.83h2.73A1.92,1.92,0,0,0,62.16,4.21Z"/></g></g></svg>